<mxfile host="app.diagrams.net" modified="2021-08-09T20:28:09.054Z" agent="5.0 (Macintosh; Intel Mac OS X 10_15_7) AppleWebKit/537.36 (KHTML, like Gecko) Chrome/92.0.4515.131 Safari/537.36" etag="f1xww7ENDncxCzmCvJ_R" version="14.9.5" type="github">
  <diagram id="t8wlkaK2DTIuuRbT2tO3" name="Page-1">
    <mxGraphModel dx="3466" dy="2458" grid="1" gridSize="10" guides="1" tooltips="1" connect="1" arrows="1" fold="1" page="1" pageScale="1" pageWidth="850" pageHeight="1100" math="0" shadow="0">
      <root>
        <mxCell id="0" />
        <mxCell id="1" parent="0" />
        <mxCell id="TX6PWKkeUGpqHd07bk0t-71" style="edgeStyle=orthogonalEdgeStyle;rounded=0;orthogonalLoop=1;jettySize=auto;html=1;exitX=0.5;exitY=1;exitDx=0;exitDy=0;entryX=1;entryY=0.5;entryDx=0;entryDy=0;startArrow=none;startFill=0;endArrow=none;endFill=0;" edge="1" parent="1" source="TX6PWKkeUGpqHd07bk0t-70" target="TX6PWKkeUGpqHd07bk0t-43">
          <mxGeometry relative="1" as="geometry" />
        </mxCell>
        <mxCell id="TX6PWKkeUGpqHd07bk0t-70" value="" style="rounded=1;whiteSpace=wrap;html=1;" vertex="1" parent="1">
          <mxGeometry x="1470" y="273.5" width="300" height="150" as="geometry" />
        </mxCell>
        <mxCell id="TX6PWKkeUGpqHd07bk0t-58" value="" style="rounded=1;whiteSpace=wrap;html=1;" vertex="1" parent="1">
          <mxGeometry x="530" y="40" width="290" height="100" as="geometry" />
        </mxCell>
        <mxCell id="TX6PWKkeUGpqHd07bk0t-19" value="" style="rounded=1;whiteSpace=wrap;html=1;" vertex="1" parent="1">
          <mxGeometry x="20" y="220" width="830" height="170" as="geometry" />
        </mxCell>
        <mxCell id="TX6PWKkeUGpqHd07bk0t-28" style="edgeStyle=orthogonalEdgeStyle;rounded=0;orthogonalLoop=1;jettySize=auto;html=1;exitX=0.5;exitY=0;exitDx=0;exitDy=0;entryX=0.512;entryY=1.012;entryDx=0;entryDy=0;entryPerimeter=0;endArrow=none;endFill=0;" edge="1" parent="1" source="TX6PWKkeUGpqHd07bk0t-1" target="TX6PWKkeUGpqHd07bk0t-19">
          <mxGeometry relative="1" as="geometry" />
        </mxCell>
        <mxCell id="TX6PWKkeUGpqHd07bk0t-46" style="edgeStyle=orthogonalEdgeStyle;rounded=0;orthogonalLoop=1;jettySize=auto;html=1;exitX=1;exitY=0.5;exitDx=0;exitDy=0;entryX=0;entryY=0.5;entryDx=0;entryDy=0;endArrow=classic;endFill=1;" edge="1" parent="1" source="TX6PWKkeUGpqHd07bk0t-1" target="TX6PWKkeUGpqHd07bk0t-38">
          <mxGeometry relative="1" as="geometry" />
        </mxCell>
        <mxCell id="TX6PWKkeUGpqHd07bk0t-49" style="edgeStyle=orthogonalEdgeStyle;rounded=0;orthogonalLoop=1;jettySize=auto;html=1;exitX=1;exitY=0.75;exitDx=0;exitDy=0;entryX=0;entryY=0.5;entryDx=0;entryDy=0;endArrow=classic;endFill=1;" edge="1" parent="1" source="TX6PWKkeUGpqHd07bk0t-1" target="TX6PWKkeUGpqHd07bk0t-40">
          <mxGeometry relative="1" as="geometry" />
        </mxCell>
        <mxCell id="TX6PWKkeUGpqHd07bk0t-63" style="edgeStyle=orthogonalEdgeStyle;orthogonalLoop=1;jettySize=auto;html=1;exitX=1;exitY=0.25;exitDx=0;exitDy=0;endArrow=none;endFill=0;fillColor=#f0a30a;strokeColor=#BD7000;rounded=0;dashed=1;" edge="1" parent="1" source="TX6PWKkeUGpqHd07bk0t-1">
          <mxGeometry relative="1" as="geometry">
            <mxPoint x="870" y="190" as="targetPoint" />
          </mxGeometry>
        </mxCell>
        <mxCell id="TX6PWKkeUGpqHd07bk0t-1" value="OFFER-SHOPPING-EXPERIENCE&lt;br&gt;For more routes information, visit &lt;font style=&quot;font-size: 18px&quot;&gt;&lt;b&gt;app.yml&lt;/b&gt;&lt;/font&gt; in OSX repo" style="rounded=1;whiteSpace=wrap;html=1;fillColor=#e3c800;strokeColor=#B09500;fontColor=#000000;" vertex="1" parent="1">
          <mxGeometry x="90" y="450" width="710" height="130" as="geometry" />
        </mxCell>
        <mxCell id="TX6PWKkeUGpqHd07bk0t-7" style="edgeStyle=orthogonalEdgeStyle;rounded=0;orthogonalLoop=1;jettySize=auto;html=1;exitX=0.5;exitY=0;exitDx=0;exitDy=0;endArrow=none;endFill=0;" edge="1" parent="1" source="TX6PWKkeUGpqHd07bk0t-2" target="TX6PWKkeUGpqHd07bk0t-1">
          <mxGeometry relative="1" as="geometry" />
        </mxCell>
        <mxCell id="TX6PWKkeUGpqHd07bk0t-22" style="edgeStyle=orthogonalEdgeStyle;rounded=0;orthogonalLoop=1;jettySize=auto;html=1;exitX=0.5;exitY=1;exitDx=0;exitDy=0;entryX=0.5;entryY=0;entryDx=0;entryDy=0;endArrow=none;endFill=0;fillColor=#0050ef;strokeColor=#001DBC;" edge="1" parent="1" source="TX6PWKkeUGpqHd07bk0t-2" target="TX6PWKkeUGpqHd07bk0t-20">
          <mxGeometry relative="1" as="geometry" />
        </mxCell>
        <mxCell id="TX6PWKkeUGpqHd07bk0t-2" value="Banking&lt;br&gt;(Redux)&lt;br&gt;(Geolocation)" style="rounded=1;whiteSpace=wrap;html=1;" vertex="1" parent="1">
          <mxGeometry x="50" y="640" width="120" height="60" as="geometry" />
        </mxCell>
        <mxCell id="TX6PWKkeUGpqHd07bk0t-9" style="edgeStyle=orthogonalEdgeStyle;rounded=0;orthogonalLoop=1;jettySize=auto;html=1;exitX=0.5;exitY=0;exitDx=0;exitDy=0;endArrow=none;endFill=0;" edge="1" parent="1" source="TX6PWKkeUGpqHd07bk0t-3">
          <mxGeometry relative="1" as="geometry">
            <mxPoint x="270" y="610" as="targetPoint" />
          </mxGeometry>
        </mxCell>
        <mxCell id="TX6PWKkeUGpqHd07bk0t-23" style="edgeStyle=orthogonalEdgeStyle;rounded=0;orthogonalLoop=1;jettySize=auto;html=1;exitX=0.5;exitY=1;exitDx=0;exitDy=0;endArrow=none;endFill=0;fillColor=#0050ef;strokeColor=#001DBC;" edge="1" parent="1" source="TX6PWKkeUGpqHd07bk0t-3">
          <mxGeometry relative="1" as="geometry">
            <mxPoint x="270" y="770" as="targetPoint" />
          </mxGeometry>
        </mxCell>
        <mxCell id="TX6PWKkeUGpqHd07bk0t-3" value="Investing&lt;br&gt;(ContextAPI)" style="rounded=1;whiteSpace=wrap;html=1;" vertex="1" parent="1">
          <mxGeometry x="210" y="640" width="120" height="60" as="geometry" />
        </mxCell>
        <mxCell id="TX6PWKkeUGpqHd07bk0t-10" style="edgeStyle=orthogonalEdgeStyle;rounded=0;orthogonalLoop=1;jettySize=auto;html=1;exitX=0.5;exitY=0;exitDx=0;exitDy=0;endArrow=none;endFill=0;" edge="1" parent="1" source="TX6PWKkeUGpqHd07bk0t-4">
          <mxGeometry relative="1" as="geometry">
            <mxPoint x="445" y="600" as="targetPoint" />
          </mxGeometry>
        </mxCell>
        <mxCell id="TX6PWKkeUGpqHd07bk0t-24" style="edgeStyle=orthogonalEdgeStyle;rounded=0;orthogonalLoop=1;jettySize=auto;html=1;exitX=0.5;exitY=1;exitDx=0;exitDy=0;endArrow=none;endFill=0;fillColor=#0050ef;strokeColor=#001DBC;" edge="1" parent="1" source="TX6PWKkeUGpqHd07bk0t-4">
          <mxGeometry relative="1" as="geometry">
            <mxPoint x="445" y="800" as="targetPoint" />
          </mxGeometry>
        </mxCell>
        <mxCell id="TX6PWKkeUGpqHd07bk0t-4" value="personal loans&lt;br&gt;(Redux)&lt;br&gt;(Geolocation)" style="rounded=1;whiteSpace=wrap;html=1;" vertex="1" parent="1">
          <mxGeometry x="385" y="640" width="120" height="60" as="geometry" />
        </mxCell>
        <mxCell id="TX6PWKkeUGpqHd07bk0t-11" style="edgeStyle=orthogonalEdgeStyle;rounded=0;orthogonalLoop=1;jettySize=auto;html=1;exitX=0.5;exitY=0;exitDx=0;exitDy=0;entryX=0.5;entryY=1;entryDx=0;entryDy=0;endArrow=none;endFill=0;" edge="1" parent="1" source="TX6PWKkeUGpqHd07bk0t-5" target="TX6PWKkeUGpqHd07bk0t-1">
          <mxGeometry relative="1" as="geometry" />
        </mxCell>
        <mxCell id="TX6PWKkeUGpqHd07bk0t-25" style="edgeStyle=orthogonalEdgeStyle;rounded=0;orthogonalLoop=1;jettySize=auto;html=1;exitX=0.5;exitY=1;exitDx=0;exitDy=0;entryX=0.5;entryY=0;entryDx=0;entryDy=0;endArrow=none;endFill=0;fillColor=#0050ef;strokeColor=#001DBC;" edge="1" parent="1" source="TX6PWKkeUGpqHd07bk0t-5" target="TX6PWKkeUGpqHd07bk0t-20">
          <mxGeometry relative="1" as="geometry" />
        </mxCell>
        <mxCell id="TX6PWKkeUGpqHd07bk0t-5" value="student loans&lt;br&gt;(Redux)&lt;br&gt;(Geolocation)" style="rounded=1;whiteSpace=wrap;html=1;" vertex="1" parent="1">
          <mxGeometry x="550" y="640" width="120" height="60" as="geometry" />
        </mxCell>
        <mxCell id="TX6PWKkeUGpqHd07bk0t-12" style="edgeStyle=orthogonalEdgeStyle;rounded=0;orthogonalLoop=1;jettySize=auto;html=1;exitX=0.5;exitY=0;exitDx=0;exitDy=0;entryX=0.5;entryY=1;entryDx=0;entryDy=0;endArrow=none;endFill=0;" edge="1" parent="1" source="TX6PWKkeUGpqHd07bk0t-6" target="TX6PWKkeUGpqHd07bk0t-1">
          <mxGeometry relative="1" as="geometry" />
        </mxCell>
        <mxCell id="TX6PWKkeUGpqHd07bk0t-27" style="edgeStyle=orthogonalEdgeStyle;rounded=0;orthogonalLoop=1;jettySize=auto;html=1;exitX=0.5;exitY=1;exitDx=0;exitDy=0;entryX=0.5;entryY=0;entryDx=0;entryDy=0;endArrow=none;endFill=0;fillColor=#0050ef;strokeColor=#001DBC;" edge="1" parent="1" source="TX6PWKkeUGpqHd07bk0t-6" target="TX6PWKkeUGpqHd07bk0t-20">
          <mxGeometry relative="1" as="geometry" />
        </mxCell>
        <mxCell id="TX6PWKkeUGpqHd07bk0t-6" value="mortgages&lt;br&gt;(Redux)&lt;br&gt;(Geolocation)" style="rounded=1;whiteSpace=wrap;html=1;" vertex="1" parent="1">
          <mxGeometry x="720" y="640" width="120" height="60" as="geometry" />
        </mxCell>
        <mxCell id="TX6PWKkeUGpqHd07bk0t-13" value="" style="aspect=fixed;html=1;points=[];align=center;image;fontSize=12;image=img/lib/mscae/Docker.svg;" vertex="1" parent="1">
          <mxGeometry x="400" y="160" width="50" height="41" as="geometry" />
        </mxCell>
        <mxCell id="TX6PWKkeUGpqHd07bk0t-14" value="edge-configs" style="rounded=1;whiteSpace=wrap;html=1;" vertex="1" parent="1">
          <mxGeometry x="200" y="275" width="120" height="60" as="geometry" />
        </mxCell>
        <mxCell id="TX6PWKkeUGpqHd07bk0t-15" value="Identity" style="rounded=1;whiteSpace=wrap;html=1;" vertex="1" parent="1">
          <mxGeometry x="50" y="275" width="120" height="60" as="geometry" />
        </mxCell>
        <mxCell id="TX6PWKkeUGpqHd07bk0t-16" value="etc..." style="rounded=1;whiteSpace=wrap;html=1;" vertex="1" parent="1">
          <mxGeometry x="660" y="275" width="120" height="60" as="geometry" />
        </mxCell>
        <mxCell id="TX6PWKkeUGpqHd07bk0t-17" value="Analytics" style="rounded=1;whiteSpace=wrap;html=1;" vertex="1" parent="1">
          <mxGeometry x="365" y="275" width="120" height="60" as="geometry" />
        </mxCell>
        <mxCell id="TX6PWKkeUGpqHd07bk0t-18" value="marketplace-*" style="rounded=1;whiteSpace=wrap;html=1;" vertex="1" parent="1">
          <mxGeometry x="505" y="275" width="120" height="60" as="geometry" />
        </mxCell>
        <mxCell id="TX6PWKkeUGpqHd07bk0t-66" style="edgeStyle=orthogonalEdgeStyle;rounded=0;orthogonalLoop=1;jettySize=auto;html=1;entryX=-0.027;entryY=0.31;entryDx=0;entryDy=0;entryPerimeter=0;startArrow=none;startFill=0;endArrow=none;endFill=0;" edge="1" parent="1" source="TX6PWKkeUGpqHd07bk0t-20" target="TX6PWKkeUGpqHd07bk0t-29">
          <mxGeometry relative="1" as="geometry" />
        </mxCell>
        <mxCell id="TX6PWKkeUGpqHd07bk0t-20" value="react-component" style="rounded=1;whiteSpace=wrap;html=1;fillColor=#dae8fc;strokeColor=#6c8ebf;" vertex="1" parent="1">
          <mxGeometry x="385" y="840" width="120" height="60" as="geometry" />
        </mxCell>
        <mxCell id="TX6PWKkeUGpqHd07bk0t-29" value="animation&lt;br&gt;apply-now-button&lt;br&gt;box&lt;br&gt;banking-offer-card&lt;br&gt;offer-card&lt;br&gt;chiclets&lt;br&gt;etc..." style="rounded=1;whiteSpace=wrap;html=1;" vertex="1" parent="1">
          <mxGeometry x="607.5" y="805" width="115" height="130" as="geometry" />
        </mxCell>
        <mxCell id="TX6PWKkeUGpqHd07bk0t-35" style="edgeStyle=orthogonalEdgeStyle;rounded=0;orthogonalLoop=1;jettySize=auto;html=1;entryX=0.5;entryY=1;entryDx=0;entryDy=0;endArrow=none;endFill=0;" edge="1" parent="1" source="TX6PWKkeUGpqHd07bk0t-33" target="TX6PWKkeUGpqHd07bk0t-29">
          <mxGeometry relative="1" as="geometry" />
        </mxCell>
        <mxCell id="TX6PWKkeUGpqHd07bk0t-36" style="edgeStyle=orthogonalEdgeStyle;rounded=0;orthogonalLoop=1;jettySize=auto;html=1;exitX=0.5;exitY=1;exitDx=0;exitDy=0;entryX=0.5;entryY=0;entryDx=0;entryDy=0;endArrow=none;endFill=0;" edge="1" parent="1" source="TX6PWKkeUGpqHd07bk0t-33" target="TX6PWKkeUGpqHd07bk0t-34">
          <mxGeometry relative="1" as="geometry" />
        </mxCell>
        <mxCell id="TX6PWKkeUGpqHd07bk0t-33" value="currency-components&lt;br&gt;https://www.nerdwallet.style/" style="rounded=1;whiteSpace=wrap;html=1;fillColor=#d5e8d4;strokeColor=#82b366;" vertex="1" parent="1">
          <mxGeometry x="538.75" y="970" width="252.5" height="60" as="geometry" />
        </mxCell>
        <mxCell id="TX6PWKkeUGpqHd07bk0t-34" value="List&lt;br&gt;Table&lt;br&gt;Link&lt;br&gt;Divider&lt;br&gt;Radio&lt;br&gt;Select&lt;br&gt;etc.." style="rounded=1;whiteSpace=wrap;html=1;" vertex="1" parent="1">
          <mxGeometry x="605" y="1050" width="120" height="130" as="geometry" />
        </mxCell>
        <mxCell id="TX6PWKkeUGpqHd07bk0t-47" style="edgeStyle=orthogonalEdgeStyle;rounded=0;orthogonalLoop=1;jettySize=auto;html=1;exitX=1;exitY=0.5;exitDx=0;exitDy=0;entryX=0;entryY=0.5;entryDx=0;entryDy=0;endArrow=classic;endFill=1;" edge="1" parent="1" source="TX6PWKkeUGpqHd07bk0t-38" target="TX6PWKkeUGpqHd07bk0t-42">
          <mxGeometry relative="1" as="geometry" />
        </mxCell>
        <mxCell id="TX6PWKkeUGpqHd07bk0t-38" value="Marketplace SDK&lt;br&gt;(Flask endpoints Python 3)" style="rounded=1;whiteSpace=wrap;html=1;" vertex="1" parent="1">
          <mxGeometry x="960" y="423.5" width="120" height="60" as="geometry" />
        </mxCell>
        <mxCell id="TX6PWKkeUGpqHd07bk0t-50" style="edgeStyle=orthogonalEdgeStyle;rounded=0;orthogonalLoop=1;jettySize=auto;html=1;exitX=0.5;exitY=0;exitDx=0;exitDy=0;entryX=0.5;entryY=1;entryDx=0;entryDy=0;endArrow=classic;endFill=1;" edge="1" parent="1" source="TX6PWKkeUGpqHd07bk0t-40" target="TX6PWKkeUGpqHd07bk0t-38">
          <mxGeometry relative="1" as="geometry" />
        </mxCell>
        <mxCell id="TX6PWKkeUGpqHd07bk0t-40" value="Query0&lt;br&gt;(GraphQL)" style="rounded=1;whiteSpace=wrap;html=1;" vertex="1" parent="1">
          <mxGeometry x="960" y="630" width="120" height="60" as="geometry" />
        </mxCell>
        <mxCell id="TX6PWKkeUGpqHd07bk0t-48" style="edgeStyle=orthogonalEdgeStyle;rounded=0;orthogonalLoop=1;jettySize=auto;html=1;entryX=0.125;entryY=0.563;entryDx=0;entryDy=0;entryPerimeter=0;endArrow=classic;endFill=1;" edge="1" parent="1" source="TX6PWKkeUGpqHd07bk0t-42" target="TX6PWKkeUGpqHd07bk0t-43">
          <mxGeometry relative="1" as="geometry" />
        </mxCell>
        <mxCell id="TX6PWKkeUGpqHd07bk0t-42" value="Marketplace" style="rounded=1;whiteSpace=wrap;html=1;" vertex="1" parent="1">
          <mxGeometry x="1150" y="485" width="130" height="60" as="geometry" />
        </mxCell>
        <mxCell id="TX6PWKkeUGpqHd07bk0t-43" value="" style="image;html=1;image=img/lib/clip_art/computers/Database_128x128.png" vertex="1" parent="1">
          <mxGeometry x="1340" y="470" width="80" height="80" as="geometry" />
        </mxCell>
        <mxCell id="TX6PWKkeUGpqHd07bk0t-44" value="Database&lt;br&gt;" style="text;html=1;align=center;verticalAlign=middle;resizable=0;points=[];autosize=1;strokeColor=none;" vertex="1" parent="1">
          <mxGeometry x="1570" y="573.5" width="70" height="20" as="geometry" />
        </mxCell>
        <mxCell id="TX6PWKkeUGpqHd07bk0t-45" value="" style="shape=image;verticalLabelPosition=bottom;labelBackgroundColor=#ffffff;verticalAlign=top;aspect=fixed;imageAspect=0;image=https://howtodoinjava.com/wp-content/uploads/2017/08/ELK.jpg;" vertex="1" parent="1">
          <mxGeometry x="1220" y="560" width="520" height="293" as="geometry" />
        </mxCell>
        <mxCell id="TX6PWKkeUGpqHd07bk0t-51" value="&lt;font style=&quot;font-size: 14px&quot;&gt;Why GraphQL?&lt;br&gt;Prevent multiple calls&lt;br&gt;Better architecture design&lt;br&gt;Fix issue with over/under fetching.&amp;nbsp;&lt;br&gt;Faster development in the client. When there are changes in data requirements, &lt;br&gt;you just need to modify&lt;br&gt;&amp;nbsp;query without waiting for backend engineers to &lt;br&gt;modify the endpoint implementation&lt;br&gt;Many more reasons, feel free to ping #graphql channel for more information&lt;/font&gt;" style="text;html=1;align=center;verticalAlign=middle;resizable=0;points=[];autosize=1;strokeColor=none;" vertex="1" parent="1">
          <mxGeometry x="770" y="713" width="510" height="140" as="geometry" />
        </mxCell>
        <mxCell id="TX6PWKkeUGpqHd07bk0t-55" value="" style="shape=image;verticalLabelPosition=bottom;labelBackgroundColor=#ffffff;verticalAlign=top;aspect=fixed;imageAspect=0;image=data:image/png,iVBORw0KGgoAAAANSUhEUgAAARoAAACzCAYAAABW19MoAAAXXklEQVR4Ae2dzas0RxWH83e5iAQRBBeCG1ealUIUJUGECKJEN6IiwYWCortAXJgYRYP5gMhLCNGFiIjoImhEAtkkaDD4ASNPe8/NeU96+vbM9Lm3+87T0PbMdFV11alfPfWr6vvGez5535M7T2OgBtRAhwYeeO8Tu0fuf353T0fhlqlo1YAaQAOCRienk1UD7RoQNIqsXWS6Gl2NoBE0gkYNtGtA0CiydpHpaHQ0gkbQCBo10K4BQaPI2kWmo9HRCBpBI2jUQLsGBI0iaxeZjkZHI2gEjaBRA+0aEDSKrF1kOhodjaARNIJGDbRrQNAosnaR6Wh0NIJG0AgaNdCuAUGjyNpFpqPR0QgaQSNo1EC7BgSNImsXmY5GRyNoBI2gUQPtGhA0iqxdZDoaHY2gETSCRg20a0DQKLJ2kelodDSCRtAIGjXQrgFBo8jaRaaj0dEIGkEjaNRAuwYEjSJrF5mORkcjaASNoFED7RoQNIqsXWQ6Gh2NoBE0gkYNtGtA0CiydpHpaHQ0gkbQCBo10K4BQaPI2kWmo9HRCBpBI2jUQLsGBI0iaxeZjkZHI2gEjaBRA+0aEDSKrF1kOhodjaARNIJGDbRrQNAosnaR6Wh0NIJG0AgaNdCuAUGjyNpFpqPR0QgaQSNo1EC7BgSNImsXmY5GRyNoBI2gUQPtGhA0iqxdZDoaHY2gETSCRg20a0DQKLJ2kelodDSCRtAIGjXQrgFBo8jaRaaj0dEIGkEjaNRAuwYEjSJrF5mORkcjaASNoFED7RoQNIqsXWQ6Gh2NoBE0gkYNtGtA0CiydpHpaHQ0gkbQCBo10K4BQaPI2kWmo9HRCBpBI2jUQLsGBI0iaxeZjkZHI2gEjaBRA+0aEDSKrF1kOhodjaARNIJGDbRrQNAosnaR6Wh0NIJG0AgaNdCuAUGjyNpFpqPR0QgaQSNo1EC7BgRNEhnBiNNZ2FlYDSynAUFz35O7B+59Yvfp9/1494WP/GL31Y+/MFz5TnAU23JiM5bnG8uzBw2QefTBO7vfvfja7t9v/3fHwfV3L722+8anfilokuMTFOcLilP7/qxBQ+NxMH975e8DYOr//OWPb+6+9sALg+M5NdDmd5CeswbOFjQ0/HMf+vnu5WdfrXy56zv3H/zAT3Q2Ohs1cIIGzhc09z6x+/6Xf737xxv/ugQLn1kyvf3Wf+76jXQE6pxnJNuuIztFA2cJGhr98IefHqBySZTdbvezH/xhcC93nnol/7z78+/fGNILGwfbKYPtnPOeJWjo8Ke+9/vLzV+owj4N8GFz+JH7nx/gErRhc/iH3/rt8GbqnMVi2wXtsRo4O9AESPIGMCABPNyLQD7+zd8GZ4YrG8MAKKeJtF4dgGpgWgNnB5rPvP+pXV0a8Wp7cDMX+zAEhY1i9mvyQT7+vmYNogJ4nJ94z4+GM75T97n1I+0SZ31eLrPeO/T7VFn53qmfa72OKa+WMfY9lzt2/5Dfcll8PiTvdaelfkzU91z3g2/ieQxG/mbmzdf/eckP3Mx3v/irdzkVAjO2WTy87r6hTqVOgAXYfemjzwxtoe6ctIuO5A3ZJXwm6km6z37wp4ucwDv6k8+5XL4fOwhyWdQ3P2fJ+lNfyotJJD83t2Xq89DODP4Se8qu+XN7In6HXGsM+H5I/utMezagoaF09JhL2dfhiKO6H15343aOHTzHdi6Q5C+XWeKxOZ3flgU1gSZLQuoIJGPPqT4TQVLO63996+Qz/taIZxATAMjzo2ziDQSpf63H1Hf65LGv/2ZoD2XR5m8//NJQDv343ON/unxGPOuU68tPvzrEl3oymeByDymPuFNH9ELs6ausEbREe0gT5fIM/o4rp5uKSdwjNkwuuSxiTlmRZm1X2ng2juY7n3/prg1gOpy//t3X0eGASBcHbmh43X3gwDm146knwgImcw5e0SNkBFlnOr4/89if5hRzZRqeA0hoH3EENMAnH3VpOicWDKa8YQ9YaQtuDdAwsJY8ACJ1p3zak/fwDn0OMaGvIvbEhRMQEIt8AMxDJi7KYcDmcmKPsfbznDhfV5qo961eOgEMOofOzweDjXsEYV/AmYmy4MmPCBH7VL595R36O/VjJs+wizYw+Pgd+OW//Yn7XBFhvLaPZy8JGupQQVPjTD0OHVAVNLTxOkATk0uFZY7p3M/EBo1lrTz60J27+jImruibq67EhTJzf+PG8h7jVWXcxP2zAQ2dU90As1j8E4N90OD3sVn6ul53I9I6cPmODWeGpG6ctIPfmOkRbxyIHQcGMENgFTSIFhCQ/5gTkVN2xKrWl7pQD2IWdbjqug80gIB7tIk+3Xcy4+f+pk770vI77R6cxcU+XgYNn4E1E87YyT2WTDyDduaD75RNzIlPxD6DAh2y1LoqJvQhzjb3L5NegP6q/Dd5n7bf+qUTHYQQcueGGHAEMRAJxlhnIG4GSRYuHRyQGsuz1G/M4vlgACFKLD71os7DebERyW/UK4ADQBB3rk+IPcplMOCaYhP50GvEjSvQGwMNzyLWzOiRPtepfp4CDWlp51Q9iVsMevoNQEzl4V6Uy8DNoMExAPyp53GPOvPc2n6+x15MxGhs6ZOdT40H+eh36hIHeqZdeRKp+dbynfrfetAQbAYXezR0egYGnRYzOmnGBgG/MWtncZAPeHV2cgVCLB9iUOwTEfcRPcAZmylruQGasbbve8bY7+SfAg0xI/4I7qpnXQWasefHb/QJk0cFDWVGmn1XYvcu0Mx8AUCbyB/7aQEE6sHfZeU2o8W8HGbi4recJteRNgGVPFkymdC/+/Lk/Df9mTqeBWgINCKgY7C6ucNCEMz++97UEChm/ZyPgY8oOzqaMpnh8gx2qIuivWMCu07QUOfsDog1bbpqA3SLoIlYE180FhMaV7QV96NvWbJFGuLCREZcIl1cSY8jIpZxhDuMNGu/0oZbCxoax5k7IX4DGtXiDoPg2f0ba+TFxeQDcXRtxFXQADbqXduU2zfn83WChlmXOufZG1gzEKccxpZBQx/kpVvoqrpfJj32Z+IAOjgf+if6kb4mXZ5wcEhbWTLldtxa0GBhh7XxxV/RRqO5MttzL3d0dDgwiY3Bmqe+NWDQsNl36uDPz4nPCI6ZMI6YGRHsPrcSeaeu1w0aYskAiqUM7bmE5h7XtXXQAFfaGAfAraBBM2gnp2PyG/b+LiZI0rAMzGmY3L7ysedaNDelm1Pu0Y5bBxoaxV4Blp3BSSfznd9zsBisCLq6FMRBHgZkzYNY2BjOB5Z2rPz8rGM/183gqBsQpe60YThL26aetxc0eXM5NpknrvUZEffsFIkjzoy64mLyQf/Qjhpjyt0yaNAIAAmwokE0NhYvYpOXWdG/oT0mw7z0xBkColrW2r/Tx7cONAR9TNThPLKw+Yw1rbBBHGOvsEnPUimvl0nbZWV5VhZaDFRmOGY22oQYB2HOhM4YaAAavyP8uScwyAInNnUzGNCEOxyWCuUP1mgDz8t9QplbBQ3toL1ZT7hetFTbGLFjAOY+pm/pD+KS93Eoh+/VGUU5a77S9lsFGhrEwMt7AjE4ubIUQfB56UEehM2gyAczErY1p6Uz+Z5nLPIgjsHy7lkKHCsCXpuyXMsuIdeRz4CO+4ib+jLYo55jz62goQziRRkIfu7JszJsiONe0Fy8kakzNM9m8FTYbAk0tHs47/3/Bj6TTrgZ2kdcp7RBXmKZNUse4pKXTOhz0O4B7nWs/2/iN9p4q0CDYPPGGR1dDzosBmMEnUDwGzNsPhh0BIj7OS2zVgUTA51BHOmWvDJAeV4WcK5nfAY6uC1ESp6x2W8MNJH/kCsDKrc3YsggiYM6D44mxY9BlQcQbRpe/yZIrw00OEvqRHvrieYAABMC2st9FM44x6nqgrhRPn2WD/LGQbzY96l5t/KdNt4a0OA06AwsZhx0VhZ1/M4mMGDJboVgjLkhxINQuB8dy2eElUXFc4a/hUgDJtKfeqWeCJ09DVwZMMlCjHblKzMklr3Wne9V1Dnf3M8sT/MAIiZTjoYYkIY8QCrXn7rStojTmkBDHwPPqZP6Z90RQ9rH5AOIol1T1xq76AfKob+IyVT+Nd+j328FaGjI2B4Ag5IGMrNmYdOJl7DJABlZFiE01sw8I3cmHZ/X4lFmXQbkPKd+pg64lGEGffDOMGBpG0Kv7aM+iL86jwoa0tAOoHTIWR0TdauDZczRkG7MEdIfg3u8+P/ZyjAC4kMfzIA48cE1xSRAXChrzkAF6PUP9mLAz73yPCYCYolTqbqZ0gDOrk6MuOxhUiz6mypnbfeIwe0Azcg/E2Dw0UHscyDs/Ko4RINbyWAgIAzEMYBU0ZCWtTfPiQORIfJDxHWMKCifQUHbuAIenoso68xK/fIfFlbQMCBxglEW5c06i/Cp0xzQ0F7KB1R5mUUMiTv1I80WQUN7qDeDamhnidFUXxM/NJaX/vQN+4FT+bZwj7ZtHjQ0goE29iYIQUeHM9NhQevMX21pDJhaHjNUlBedS1p+z2Wyr8MgqmkjT8eVevA8rkCj1h3I0n7u7wMN906pG/nngiaew3Ipz+DEkYFKHdcCGmJJ/Fgq5hPdVFCSbpi4ZjiviEG+kpcyQk/73HTOs4XPaGPzoGEA1dfZzOIMdmbp6AgaS0dWtxK2PKclTxY6sy2iqhublAnksuAQCSKs5UU9Oq/Uh7O+FcPpsHTg3ppAQ32Ic3Zh9B2wzACPPpoD76WXTuF66c96sieXoX5ZzyOhHaAJhyxoTvg/k1pyoCHUunyJTmLwA5v8PNKP7Q/gQvLSKNJlgFAuAxgh1zJZtuTBguCoV0537Gfqwjk3P2lpdx4AtAPAcG9toKn1Ic7UPe+rXQ7gGU5hcdCMvDmjL4gl8M77QdQdLeWN7bn9RjpBsxKw1E6jswEHsx9irAcDrP4NA3nG4EQZGSLMnvyWD5xBdTXUicHCvXzgnBAOz6v1PuQ70BjKmTHIKJfnVdCw0bpG0ER9qyskjrF84PMaQRN9OExcT7/zsoF644LyxBVpr7oKmpWCJoSKpWV/IG+kxaBnduRett18xp1kF0K6DCUGLPmYoeJA8Nj6XNZQB95WPHT3f/gc2ztsDM8ERBUhz49X6IACePBbfXbOF/fr0gnorXHpFHWnTbiAHOuIOdc1g4aY0zf0URzAhkkKuEcb51wFzYpBEx2IWOko9msY5PnAhucZBnHwPbsQxEHePJAZnOy35IPNupwmno+ouJcPHNWYA4o8+66UX1+zsndB/fgHdQM0Rt4O4ciAUx6wdZBSz9wmYnXUW6eL50cbiOmhm8GRl2sseahvPWobcr76OcoJDdCv7AMRs5q2fh+L+9gr+pqPsusSiomLuNa0U98FzQpBcznY0tIkZnRmk+xWEBuDKwOCtGzm5XSI4y4gXcy0IVoGAGnyEiuEQ3ksAQBCHDyXv42INHOv1BPh5rKiTAYd4qeN1B8gARfS4+hyXcnDbxl2FTTUkdkY13PMyfOJx6mgIT99CkypUz7WDhrqHnHNdSeuaIL7c/pe0KwINCFoBhCDLQ8iOjM6HcHmA7EOS6PU6YijWl4GbIiCsig/bwozkGMZE+niSvr6tgp3sS995Bu7MnhZTlC/LN7cJn7PZ77HZ/LWZ8eAqGmP+c6zY4M8+iXHao4byG2nDEBPvnysHTS0Ido/5pKrRnOb82dBsyLQMOvlJQody4Cko6PT+FwBgXDrBi3OAceRBzIAo8OjPK7kyweDK7uj/FxmsAwv8lHfSHPIlWcw8HjeFHBy3fiMS6MdY//dEkCT41fzHvqd+IWj4Xl52XYoaIgNbQaOGVjAnQlgLOY1ntSFtOFU6VsmHXRT09bvlI9Dw7XGcUgb0AouMztRIEn/1WeNfa+goQ1jf5U+lnfNvxGXTf0dzSCEkU3XsT9PH0tLpyOkEGwEIAuLz9kFsNGchYsAAQ8DdqxzQ2wZXpfPTTAcyzv2G+VRX0RI3Rk0wJV6ImjK5srJ4AQigJf6kbeWyYALcAGvk84XXxv2IQI0QJbnR5m4O+pd6zDnO21lkFMW19xvU/mpS85LrOi/OaChXAYE/XtMG4g3cR/i++I7sWXZPicOl3kv+oV248Kn2ruFe8RlU6BBLAQ/H3wfs6Y0js5lZs8HAxV4RAfRublMZs8MLgY54MmzFCKcWntTZrbQPJ9nUJ+xwR91mbqSj7pwEgecDp1H3bhSH36PdFNlbeHesXGibcBmTW2kPmur03XGh77cDGioLDNFdQrDq+uRmZtAkocZIWw0A55ZHzDlQFNuPoaN44syKaMuh4BOfhWeyxqee7GJnOFEHQb7v6eutYyrvlOv4QQ+F5+vyuP9J+/qd+NxPfFAn5sADRUFDjiJfGBxmeGnBMMsX9f7eVOYsvmeD9xHzEDcH5xRclK4Ht70TD2b5+bXyJSPyxlzX1P19971DAbj3Bfn7YDm4g/iGOBxAI/8h3g0BrHkK59ZJuXNTxwRDianYxnCXkcclM3yhzScQCdD49Kd7IHckO9iIzdvjvKM4Q/+FnI1Do6+wWFsl4st42Ebjubi70rysom9F9wBQJg6gQSvwXNe9mmqY8lAYKOV5VIulzxxUBZvW7Kjobycns9jTijv/yjm5cRsLNcby02Bhjcp2XXgKoAD7uOqM++VAAuWXCxtQpxAIS/LAEktOz+b+7xRCdBwhdgsuXJdKCMDjjLqq/iog9f1DhT75rS+2Qxo6GjcQX2TEw7j0CtAAC4hINxIBs1V5QEPHE4GTX0zNVbGqW+eor5eTxO+8bve+G0KNFSWTdv8Ny9jg3nOb6eChmccChrcTd6EVuzXK3bjfXPx3hRoEEpUmM1dBi5LomNO8mdHwzKK5dTcsoBd3qOhXjgaXFEtg6UUz+OvZhX7zYnd2N9c7GPc3rOlTqDSnGzW8tbpmJO3TLEZHG0/tLz6tziAa6wuPGuo8543VPF8rzc3EIx9b+w3CZoQRQDn2GuUE9dDy4l8+bqvjJzGz72iNr7riy/jYhOvtxXP+sRjn9gnczUgaFb0r9LndprpHOBb04CgETRuUKuBdg0IGkXWLrKtzb7Wd3nHKGgEjaBRA+0aEDSKrF1kOoTlHcLWYipoBI2gUQPtGhA0iqxdZFubfa3v8g5M0AgaQaMG2jUgaBRZu8h0CMs7hK3FVNAIGkGjBto1IGgUWbvItjb7Wt/lHZigETSCRg20a0DQKLJ2kekQlncIW4upoBE0gkYNtGtA0CiydpFtbfa1vss7MEEjaASNGmjXgKBRZO0i0yEs7xC2FlNBI2gEjRpo14CgUWTtItva7Gt9l3dggkbQCBo10K4BQaPI2kWmQ1jeIWwtpoJG0AgaNdCuAUGjyNpFtrXZ1/ou78AEjaARNGqgXQOCRpG1i0yHsLxD2FpMBY2gETRqoF0DgkaRtYtsa7Ov9V3egQkaQSNo1EC7BgSNImsXmQ5heYewtZgKGkEjaNRAuwYEjSJrF9nWZl/ru7wDEzSCRtCogXYNCBpF1i4yHcLyDmFrMRU0gkbQqIF2DQgaRdYusq3NvtZ3eQcmaASNoFED7RoQNIqsXWQ6hOUdwtZiKmgEjaBRA+0aEDSKrF1kW5t9re/yDkzQCBpBowbaNSBoFFm7yHQIyzuErcVU0AgaQaMG2jUgaBRZu8i2Nvta3+UdmKARNIJGDbRrQNAosnaR6RCWdwhbi6mgETSCRg20a0DQKLJ2kW1t9rW+yzswQSNoBI0aaNeAoFFk7SLTISzvELYWU0EjaASNGmjXgKBRZO0i29rsa32Xd2CCRtAIGjXQrgFBo8jaRaZDWN4hbC2mgkbQCBo10K4BQaPI2kW2tdnX+i7vwASNoBE0aqBdA4JGkbWLTIewvEPYWkwFjaARNGqgXQOCRpG1i2xrs6/1Xd6BCRpBI2jUQLsGBI0iaxeZDmF5h7C1mAoaQSNo1EC7BgSNImsX2dZmX+u7vAMTNIJG0KiBdg0IGkXWLjIdwvIOYWsxDdD8D5F7HxYg0jZhAAAAAElFTkSuQmCC;" vertex="1" parent="1">
          <mxGeometry x="550" y="60.800000000000026" width="92" height="58.4" as="geometry" />
        </mxCell>
        <mxCell id="TX6PWKkeUGpqHd07bk0t-56" value="" style="shape=image;verticalLabelPosition=bottom;labelBackgroundColor=#ffffff;verticalAlign=top;aspect=fixed;imageAspect=0;image=https://upload.wikimedia.org/wikipedia/en/thumb/7/7e/Datadog_logo.svg/1200px-Datadog_logo.svg.png;" vertex="1" parent="1">
          <mxGeometry x="660" y="65" width="50" height="50" as="geometry" />
        </mxCell>
        <mxCell id="TX6PWKkeUGpqHd07bk0t-57" value="" style="shape=image;verticalLabelPosition=bottom;labelBackgroundColor=#ffffff;verticalAlign=top;aspect=fixed;imageAspect=0;image=https://senturus.com/wp-content/uploads/2020/02/2020-02-27-Snowflake%E2%80%99s-Cloud-Data-Platform-and-Modern-BI.jpg;" vertex="1" parent="1">
          <mxGeometry x="720" y="65" width="97.74" height="50" as="geometry" />
        </mxCell>
        <mxCell id="TX6PWKkeUGpqHd07bk0t-59" value="indy stack ps" style="text;html=1;align=center;verticalAlign=middle;resizable=0;points=[];autosize=1;strokeColor=none;" vertex="1" parent="1">
          <mxGeometry x="385" y="240" width="80" height="20" as="geometry" />
        </mxCell>
        <mxCell id="TX6PWKkeUGpqHd07bk0t-64" style="edgeStyle=orthogonalEdgeStyle;rounded=0;orthogonalLoop=1;jettySize=auto;html=1;exitX=0;exitY=0.75;exitDx=0;exitDy=0;endArrow=none;endFill=0;startArrow=classic;startFill=1;dashed=1;" edge="1" parent="1" source="TX6PWKkeUGpqHd07bk0t-60">
          <mxGeometry relative="1" as="geometry">
            <mxPoint x="870" y="190" as="targetPoint" />
          </mxGeometry>
        </mxCell>
        <mxCell id="TX6PWKkeUGpqHd07bk0t-60" value="&lt;meta charset=&quot;utf-8&quot;&gt;&lt;div style=&quot;color: rgb(212, 212, 212); background-color: rgb(30, 30, 30); font-family: menlo, monaco, &amp;quot;courier new&amp;quot;, monospace; font-weight: normal; font-size: 12px; line-height: 18px;&quot;&gt;&lt;div&gt;&lt;span style=&quot;color: #6a9955&quot;&gt;# Student Loans&lt;/span&gt;&lt;/div&gt;&lt;div&gt;&lt;span style=&quot;color: #d4d4d4&quot;&gt;    - &lt;/span&gt;&lt;span style=&quot;color: #ce9178&quot;&gt;/refinancing-student-loans/results&lt;/span&gt;&lt;/div&gt;&lt;div&gt;&lt;span style=&quot;color: #d4d4d4&quot;&gt;    - &lt;/span&gt;&lt;span style=&quot;color: #ce9178&quot;&gt;/refinancing-student-loans/pre-qualify/results&lt;/span&gt;&lt;/div&gt;&lt;div&gt;&lt;span style=&quot;color: #d4d4d4&quot;&gt;    &lt;/span&gt;&lt;span style=&quot;color: #6a9955&quot;&gt;# Personal Loans&lt;/span&gt;&lt;/div&gt;&lt;div&gt;&lt;span style=&quot;color: #d4d4d4&quot;&gt;    - &lt;/span&gt;&lt;span style=&quot;color: #ce9178&quot;&gt;/personal-loans&lt;/span&gt;&lt;/div&gt;&lt;div&gt;&lt;span style=&quot;color: #d4d4d4&quot;&gt;    - &lt;/span&gt;&lt;span style=&quot;color: #ce9178&quot;&gt;/personal-loans/debt-consolidation-loans&lt;/span&gt;&lt;/div&gt;&lt;div&gt;&lt;span style=&quot;color: #d4d4d4&quot;&gt;    - &lt;/span&gt;&lt;span style=&quot;color: #ce9178&quot;&gt;/personal-loans/bad-credit-loans&lt;/span&gt;&lt;/div&gt;&lt;div&gt;&lt;span style=&quot;color: #d4d4d4&quot;&gt;    - &lt;/span&gt;&lt;span style=&quot;color: #ce9178&quot;&gt;/personal-loans/pre-qualify/results&lt;/span&gt;&lt;/div&gt;&lt;div&gt;&lt;span style=&quot;color: #d4d4d4&quot;&gt;    &lt;/span&gt;&lt;span style=&quot;color: #6a9955&quot;&gt;# Investing&lt;/span&gt;&lt;/div&gt;&lt;div&gt;&lt;span style=&quot;color: #d4d4d4&quot;&gt;    - &lt;/span&gt;&lt;span style=&quot;color: #ce9178&quot;&gt;/investing&lt;/span&gt;&lt;/div&gt;&lt;div&gt;&lt;span style=&quot;color: #d4d4d4&quot;&gt;    - &lt;/span&gt;&lt;span style=&quot;color: #ce9178&quot;&gt;/investing/broker-comparison&lt;/span&gt;&lt;/div&gt;&lt;div&gt;&lt;span style=&quot;color: #d4d4d4&quot;&gt;    &lt;/span&gt;&lt;span style=&quot;color: #6a9955&quot;&gt;# Small Business&lt;/span&gt;&lt;/div&gt;&lt;div&gt;&lt;span style=&quot;color: #d4d4d4&quot;&gt;    - &lt;/span&gt;&lt;span style=&quot;color: #ce9178&quot;&gt;/small-business&lt;/span&gt;&lt;/div&gt;&lt;div&gt;&lt;span style=&quot;color: #d4d4d4&quot;&gt;    - &lt;/span&gt;&lt;span style=&quot;color: #ce9178&quot;&gt;/small-business/banking-comparison&lt;/span&gt;&lt;/div&gt;&lt;div&gt;&lt;span style=&quot;color: #d4d4d4&quot;&gt;    &lt;/span&gt;&lt;span style=&quot;color: #6a9955&quot;&gt;# Root for all rates&lt;/span&gt;&lt;/div&gt;&lt;div&gt;&lt;span style=&quot;color: #d4d4d4&quot;&gt;    - &lt;/span&gt;&lt;span style=&quot;color: #ce9178&quot;&gt;/rates&lt;/span&gt;&lt;/div&gt;&lt;div&gt;&lt;span style=&quot;color: #d4d4d4&quot;&gt;    &lt;/span&gt;&lt;span style=&quot;color: #6a9955&quot;&gt;# Banking&lt;/span&gt;&lt;/div&gt;&lt;div&gt;&lt;span style=&quot;color: #d4d4d4&quot;&gt;    - &lt;/span&gt;&lt;span style=&quot;color: #ce9178&quot;&gt;/rates/banking&lt;/span&gt;&lt;/div&gt;&lt;div&gt;&lt;span style=&quot;color: #d4d4d4&quot;&gt;    - &lt;/span&gt;&lt;span style=&quot;color: #ce9178&quot;&gt;/rates/banking/checking-accounts&lt;/span&gt;&lt;/div&gt;&lt;div&gt;&lt;span style=&quot;color: #d4d4d4&quot;&gt;    - &lt;/span&gt;&lt;span style=&quot;color: #ce9178&quot;&gt;/rates/banking/savings-accounts&lt;/span&gt;&lt;/div&gt;&lt;div&gt;&lt;span style=&quot;color: #d4d4d4&quot;&gt;    - &lt;/span&gt;&lt;span style=&quot;color: #ce9178&quot;&gt;/rates/banking/money-market-accounts&lt;/span&gt;&lt;/div&gt;&lt;div&gt;&lt;span style=&quot;color: #d4d4d4&quot;&gt;    - &lt;/span&gt;&lt;span style=&quot;color: #ce9178&quot;&gt;/rates/banking/cd-accounts&lt;/span&gt;&lt;/div&gt;&lt;div&gt;&lt;span style=&quot;color: #d4d4d4&quot;&gt;    - &lt;/span&gt;&lt;span style=&quot;color: #ce9178&quot;&gt;/rates/banking/cash-management-accounts&lt;/span&gt;&lt;/div&gt;&lt;div&gt;&lt;span style=&quot;color: #d4d4d4&quot;&gt;    - &lt;/span&gt;&lt;span style=&quot;color: #ce9178&quot;&gt;/rates/banking/all-accounts&lt;/span&gt;&lt;/div&gt;&lt;div&gt;&lt;span style=&quot;color: #d4d4d4&quot;&gt;    &lt;/span&gt;&lt;span style=&quot;color: #6a9955&quot;&gt;# Insurance&lt;/span&gt;&lt;/div&gt;&lt;div&gt;&lt;span style=&quot;color: #d4d4d4&quot;&gt;    - &lt;/span&gt;&lt;span style=&quot;color: #ce9178&quot;&gt;/insurance/match/results&lt;/span&gt;&lt;/div&gt;&lt;div&gt;&lt;span style=&quot;color: #d4d4d4&quot;&gt;    &lt;/span&gt;&lt;span style=&quot;color: #6a9955&quot;&gt;# Mortgages&lt;/span&gt;&lt;/div&gt;&lt;div&gt;&lt;span style=&quot;color: #d4d4d4&quot;&gt;    - &lt;/span&gt;&lt;span style=&quot;color: #ce9178&quot;&gt;/mortgages/rates&lt;/span&gt;&lt;/div&gt;&lt;div&gt;&lt;span style=&quot;color: #d4d4d4&quot;&gt;    - &lt;/span&gt;&lt;span style=&quot;color: #ce9178&quot;&gt;/mortgages/refinance-rates&lt;/span&gt;&lt;/div&gt;&lt;/div&gt;" style="text;whiteSpace=wrap;html=1;" vertex="1" parent="1">
          <mxGeometry x="1010" y="-250" width="280" height="590" as="geometry" />
        </mxCell>
        <mxCell id="TX6PWKkeUGpqHd07bk0t-68" value="" style="pointerEvents=1;shadow=0;dashed=0;html=1;strokeColor=none;fillColor=#DF8C42;labelPosition=center;verticalLabelPosition=bottom;verticalAlign=top;align=center;outlineConnect=0;shape=mxgraph.veeam2.aws_s3;" vertex="1" parent="1">
          <mxGeometry x="1585" y="294" width="70" height="60" as="geometry" />
        </mxCell>
        <mxCell id="TX6PWKkeUGpqHd07bk0t-69" value="&lt;font style=&quot;font-size: 14px&quot;&gt;Store all the json backups for marketplace&lt;/font&gt;" style="text;html=1;align=center;verticalAlign=middle;resizable=0;points=[];autosize=1;strokeColor=none;" vertex="1" parent="1">
          <mxGeometry x="1480" y="370" width="280" height="20" as="geometry" />
        </mxCell>
      </root>
    </mxGraphModel>
  </diagram>
</mxfile>
